<svg width="267" height="48" viewBox="0 0 267 48" fill="none" xmlns="http://www.w3.org/2000/svg">
<g clip-path="url(#clip0)">
<path d="M24.0532 0.461853C11.1315 0.461853 0.656738 10.9261 0.656738 23.835C0.656738 36.7439 11.1315 47.2082 24.0532 47.2082C36.975 47.2082 47.4497 36.7439 47.4497 23.835C47.4497 10.9264 36.9747 0.461853 24.0532 0.461853ZM33.6751 33.5971L23.8993 39.2451V39.2471H23.8952L14.1133 33.5971V14.0527L14.1234 14.0588L23.8912 8.42289L30.1606 11.9177H30.1626V20.7408L27.112 18.9904V13.6763L23.8952 11.8449L17.1619 15.7343V31.9357L23.8952 35.8251L30.6285 31.9478L30.6609 25.29L21.0937 19.7452L24.1666 18.1303L33.6994 23.6832L33.6751 33.5991V33.5971ZM25.7386 23.1996L28.0944 24.5534L21.0937 28.5359V20.5061L23.5529 21.955V24.3652L25.7406 23.1996H25.7386Z" fill="#516FFA"/>
<path d="M62.3667 11.1305H71.3121C72.1763 11.1305 73.0298 11.233 73.8725 11.4381C74.7152 11.6432 75.466 11.9778 76.125 12.4418C76.7841 12.9059 77.3188 13.5049 77.7294 14.2388C78.1399 14.9728 78.3452 15.8578 78.3452 16.8939C78.3452 18.189 77.9779 19.2575 77.2432 20.0993C76.5086 20.9412 75.5471 21.5456 74.3587 21.9125V21.9773C75.0717 22.0636 75.7361 22.2633 76.3519 22.5763C76.9677 22.8893 77.4917 23.2886 77.9238 23.7743C78.356 24.26 78.6963 24.8212 78.9448 25.458C79.1933 26.0947 79.3175 26.7801 79.3175 27.514C79.3175 28.766 79.069 29.8074 78.572 30.6385C78.0751 31.4695 77.4215 32.1387 76.6112 32.646C75.8009 33.1532 74.8718 33.5148 73.8239 33.7306C72.7759 33.9465 71.7118 34.0544 70.6314 34.0544H62.3667V11.1305ZM66.4504 20.4555H70.1777C71.5389 20.4555 72.5599 20.1911 73.2405 19.6622C73.9211 19.1334 74.2614 18.4372 74.2614 17.5738C74.2614 16.5809 73.9103 15.8416 73.2081 15.3559C72.5058 14.8702 71.3769 14.6274 69.8212 14.6274H66.4504V20.4555ZM66.4504 30.5576H70.2101C70.7287 30.5576 71.285 30.5252 71.8792 30.4604C72.4734 30.3957 73.019 30.2446 73.516 30.0071C74.0129 29.7697 74.4235 29.4297 74.7476 28.9872C75.0717 28.5447 75.2337 27.9457 75.2337 27.1902C75.2337 25.9814 74.8394 25.1396 74.0508 24.6647C73.2621 24.1898 72.0359 23.9524 70.3721 23.9524H66.4504V30.5576ZM92.2494 31.9174H92.1521C91.5903 32.8025 90.8773 33.4446 90.013 33.844C89.1487 34.2433 88.198 34.443 87.1609 34.443C86.4478 34.443 85.751 34.3458 85.0704 34.1516C84.3898 33.9573 83.7848 33.6659 83.2554 33.2773C82.726 32.8888 82.2993 32.4031 81.9752 31.8203C81.6511 31.2375 81.489 30.5576 81.489 29.7805C81.489 28.9386 81.6403 28.2209 81.9428 27.6273C82.2453 27.0337 82.6504 26.5372 83.1582 26.1379C83.6659 25.7386 84.2547 25.4202 84.9245 25.1827C85.5944 24.9453 86.2912 24.7672 87.015 24.6485C87.7389 24.5298 88.4681 24.4542 89.2028 24.4218C89.9374 24.3895 90.6288 24.3733 91.277 24.3733H92.2494V23.9524C92.2494 22.981 91.9145 22.2525 91.2446 21.7668C90.5748 21.2811 89.7213 21.0383 88.6842 21.0383C87.8631 21.0383 87.0961 21.184 86.383 21.4754C85.67 21.7668 85.0542 22.1608 84.5356 22.6572L82.4937 20.6174C83.358 19.7324 84.3682 19.0956 85.5241 18.7071C86.6801 18.3185 87.8739 18.1243 89.1055 18.1243C90.2075 18.1243 91.1366 18.2484 91.8928 18.4966C92.6491 18.7448 93.2757 19.0632 93.7727 19.4518C94.2696 19.8403 94.6532 20.2882 94.9232 20.7955C95.1933 21.3027 95.3878 21.8154 95.5066 22.3334C95.6255 22.8515 95.6957 23.3534 95.7173 23.839C95.7389 24.3247 95.7497 24.751 95.7497 25.118V34.0544H92.2494V31.9174ZM92.0225 27.0931H91.2122C90.672 27.0931 90.067 27.1147 89.3972 27.1578C88.7274 27.201 88.0954 27.3035 87.5012 27.4654C86.907 27.6273 86.4046 27.8647 85.9941 28.1777C85.5836 28.4907 85.3783 28.9278 85.3783 29.4891C85.3783 29.856 85.4593 30.1636 85.6214 30.4119C85.7834 30.6601 85.9941 30.8705 86.2534 31.0432C86.5127 31.2159 86.8044 31.34 87.1285 31.4156C87.4526 31.4911 87.7767 31.5289 88.1008 31.5289C89.4404 31.5289 90.429 31.2105 91.0664 30.5737C91.7038 29.937 92.0225 29.0682 92.0225 27.9673V27.0931ZM99.4445 18.5128H103.139V21.0059H103.204C103.572 20.2288 104.133 19.5543 104.89 18.9823C105.646 18.4103 106.672 18.1243 107.969 18.1243C109.006 18.1243 109.886 18.2969 110.61 18.6423C111.334 18.9877 111.923 19.441 112.376 20.0022C112.83 20.5634 113.154 21.211 113.349 21.9449C113.543 22.6788 113.64 23.4451 113.64 24.2438V34.0544H109.751V26.1865C109.751 25.7548 109.73 25.2745 109.686 24.7456C109.643 24.2168 109.53 23.7203 109.346 23.2562C109.162 22.7921 108.876 22.4036 108.487 22.0906C108.098 21.7776 107.569 21.6211 106.899 21.6211C106.251 21.6211 105.705 21.729 105.262 21.9449C104.819 22.1608 104.452 22.4522 104.16 22.8191C103.869 23.1861 103.658 23.607 103.528 24.0819C103.399 24.5568 103.334 25.0532 103.334 25.5713V34.0544H99.4445V18.5128ZM129.878 31.7232H129.813C129.252 32.6729 128.495 33.3637 127.545 33.7954C126.594 34.2271 125.568 34.443 124.466 34.443C123.256 34.443 122.181 34.2325 121.241 33.8116C120.301 33.3907 119.496 32.8133 118.826 32.0793C118.156 31.3454 117.649 30.482 117.303 29.4891C116.957 28.4961 116.784 27.4277 116.784 26.2836C116.784 25.1396 116.968 24.0711 117.335 23.0781C117.703 22.0852 118.216 21.2218 118.875 20.4879C119.534 19.754 120.328 19.1766 121.257 18.7556C122.186 18.3347 123.202 18.1243 124.304 18.1243C125.038 18.1243 125.686 18.1998 126.248 18.3509C126.81 18.502 127.307 18.6963 127.739 18.9337C128.171 19.1712 128.539 19.4248 128.841 19.6946C129.144 19.9644 129.392 20.2288 129.586 20.4879H129.684V9.57635H133.573V34.0544H129.878V31.7232ZM120.674 26.2836C120.674 26.888 120.776 27.4708 120.981 28.032C121.187 28.5933 121.489 29.0897 121.889 29.5214C122.289 29.9532 122.769 30.2985 123.331 30.5576C123.893 30.8166 124.53 30.9461 125.243 30.9461C125.956 30.9461 126.594 30.8166 127.156 30.5576C127.717 30.2985 128.198 29.9532 128.598 29.5214C128.998 29.0897 129.3 28.5933 129.505 28.032C129.711 27.4708 129.813 26.888 129.813 26.2836C129.813 25.6792 129.711 25.0964 129.505 24.5352C129.3 23.9739 128.998 23.4775 128.598 23.0458C128.198 22.6141 127.717 22.2687 127.156 22.0097C126.594 21.7506 125.956 21.6211 125.243 21.6211C124.53 21.6211 123.893 21.7506 123.331 22.0097C122.769 22.2687 122.289 22.6141 121.889 23.0458C121.489 23.4775 121.187 23.9739 120.981 24.5352C120.776 25.0964 120.674 25.6792 120.674 26.2836ZM146.959 11.1305H154.672C155.774 11.1305 156.838 11.2384 157.865 11.4543C158.891 11.6702 159.793 12.0317 160.571 12.539C161.349 13.0462 161.97 13.7262 162.435 14.5788C162.899 15.4315 163.132 16.4945 163.132 17.7681C163.132 19.2143 162.883 20.3799 162.386 21.265C161.889 22.15 161.219 22.8353 160.377 23.321C159.534 23.8067 158.556 24.1358 157.443 24.3085C156.331 24.4812 155.169 24.5676 153.959 24.5676H151.042V34.0544H146.959V11.1305ZM153.506 21.0707C154.089 21.0707 154.694 21.0491 155.321 21.0059C155.947 20.9628 156.525 20.8332 157.055 20.6174C157.584 20.4015 158.016 20.0777 158.351 19.646C158.686 19.2143 158.853 18.6099 158.853 17.8328C158.853 17.1205 158.702 16.5539 158.4 16.133C158.097 15.7121 157.708 15.3883 157.233 15.1616C156.757 14.935 156.228 14.7893 155.645 14.7245C155.061 14.6598 154.5 14.6274 153.959 14.6274H151.042V21.0707H153.506ZM165.919 18.5128H169.808V20.9735H169.873C170.305 20.0669 170.921 19.3654 171.72 18.869C172.52 18.3725 173.438 18.1243 174.475 18.1243C174.713 18.1243 174.945 18.1458 175.172 18.189C175.399 18.2322 175.631 18.2861 175.869 18.3509V22.1068C175.545 22.0205 175.226 21.9503 174.913 21.8963C174.6 21.8424 174.292 21.8154 173.989 21.8154C173.082 21.8154 172.352 21.9827 171.801 22.3173C171.25 22.6518 170.829 23.035 170.537 23.4667C170.246 23.8984 170.051 24.3301 169.954 24.7618C169.857 25.1935 169.808 25.5173 169.808 25.7332V34.0544H165.919V18.5128ZM176.679 26.2836C176.679 25.0532 176.901 23.9362 177.344 22.9324C177.787 21.9287 178.386 21.0707 179.142 20.3584C179.899 19.646 180.795 19.0956 181.833 18.7071C182.87 18.3185 183.972 18.1243 185.138 18.1243C186.305 18.1243 187.407 18.3185 188.444 18.7071C189.481 19.0956 190.378 19.646 191.134 20.3584C191.891 21.0707 192.49 21.9287 192.933 22.9324C193.376 23.9362 193.598 25.0532 193.598 26.2836C193.598 27.514 193.376 28.631 192.933 29.6348C192.49 30.6385 191.891 31.4965 191.134 32.2089C190.378 32.9212 189.481 33.4716 188.444 33.8602C187.407 34.2487 186.305 34.443 185.138 34.443C183.972 34.443 182.87 34.2487 181.833 33.8602C180.795 33.4716 179.899 32.9212 179.142 32.2089C178.386 31.4965 177.787 30.6385 177.344 29.6348C176.901 28.631 176.679 27.514 176.679 26.2836ZM180.569 26.2836C180.569 26.888 180.671 27.4708 180.876 28.032C181.082 28.5933 181.384 29.0897 181.784 29.5214C182.184 29.9532 182.664 30.2985 183.226 30.5576C183.788 30.8166 184.425 30.9461 185.138 30.9461C185.851 30.9461 186.489 30.8166 187.051 30.5576C187.612 30.2985 188.093 29.9532 188.493 29.5214C188.893 29.0897 189.195 28.5933 189.4 28.032C189.606 27.4708 189.708 26.888 189.708 26.2836C189.708 25.6792 189.606 25.0964 189.4 24.5352C189.195 23.9739 188.893 23.4775 188.493 23.0458C188.093 22.6141 187.612 22.2687 187.051 22.0097C186.489 21.7506 185.851 21.6211 185.138 21.6211C184.425 21.6211 183.788 21.7506 183.226 22.0097C182.664 22.2687 182.184 22.6141 181.784 23.0458C181.384 23.4775 181.082 23.9739 180.876 24.5352C180.671 25.0964 180.569 25.6792 180.569 26.2836ZM194.926 21.8154V18.5128H198.135V14.0122H202.024V18.5128H206.303V21.8154H202.024V28.6148C202.024 29.3919 202.17 30.0071 202.462 30.4604C202.754 30.9137 203.332 31.1404 204.196 31.1404C204.542 31.1404 204.92 31.1026 205.33 31.027C205.741 30.9515 206.065 30.8274 206.303 30.6547V33.9249C205.892 34.1192 205.39 34.2541 204.796 34.3296C204.201 34.4052 203.677 34.443 203.224 34.443C202.186 34.443 201.338 34.3296 200.679 34.103C200.02 33.8763 199.502 33.531 199.124 33.0669C198.745 32.6028 198.486 32.0254 198.346 31.3346C198.205 30.6439 198.135 29.8452 198.135 28.9386V21.8154H194.926ZM208.085 26.2836C208.085 25.0532 208.307 23.9362 208.75 22.9324C209.193 21.9287 209.792 21.0707 210.548 20.3584C211.305 19.646 212.201 19.0956 213.238 18.7071C214.276 18.3185 215.378 18.1243 216.544 18.1243C217.711 18.1243 218.813 18.3185 219.85 18.7071C220.887 19.0956 221.784 19.646 222.54 20.3584C223.297 21.0707 223.896 21.9287 224.339 22.9324C224.782 23.9362 225.004 25.0532 225.004 26.2836C225.004 27.514 224.782 28.631 224.339 29.6348C223.896 30.6385 223.297 31.4965 222.54 32.2089C221.784 32.9212 220.887 33.4716 219.85 33.8602C218.813 34.2487 217.711 34.443 216.544 34.443C215.378 34.443 214.276 34.2487 213.238 33.8602C212.201 33.4716 211.305 32.9212 210.548 32.2089C209.792 31.4965 209.193 30.6385 208.75 29.6348C208.307 28.631 208.085 27.514 208.085 26.2836ZM211.974 26.2836C211.974 26.888 212.077 27.4708 212.282 28.032C212.488 28.5933 212.79 29.0897 213.19 29.5214C213.59 29.9532 214.07 30.2985 214.632 30.5576C215.194 30.8166 215.831 30.9461 216.544 30.9461C217.257 30.9461 217.895 30.8166 218.457 30.5576C219.018 30.2985 219.499 29.9532 219.899 29.5214C220.299 29.0897 220.601 28.5933 220.806 28.032C221.012 27.4708 221.114 26.888 221.114 26.2836C221.114 25.6792 221.012 25.0964 220.806 24.5352C220.601 23.9739 220.299 23.4775 219.899 23.0458C219.499 22.6141 219.018 22.2687 218.457 22.0097C217.895 21.7506 217.257 21.6211 216.544 21.6211C215.831 21.6211 215.194 21.7506 214.632 22.0097C214.07 22.2687 213.59 22.6141 213.19 23.0458C212.79 23.4775 212.488 23.9739 212.282 24.5352C212.077 25.0964 211.974 25.6792 211.974 26.2836ZM238.778 23.1753C238.324 22.7004 237.849 22.3226 237.352 22.042C236.855 21.7614 236.347 21.6211 235.829 21.6211C235.116 21.6211 234.478 21.7506 233.917 22.0097C233.355 22.2687 232.874 22.6141 232.474 23.0458C232.075 23.4775 231.772 23.9739 231.567 24.5352C231.361 25.0964 231.259 25.6792 231.259 26.2836C231.259 26.888 231.361 27.4708 231.567 28.032C231.772 28.5933 232.075 29.0897 232.474 29.5214C232.874 29.9532 233.355 30.2985 233.917 30.5576C234.478 30.8166 235.116 30.9461 235.829 30.9461C236.434 30.9461 236.996 30.822 237.514 30.5737C238.033 30.3255 238.476 29.964 238.843 29.4891L241.436 32.2736C241.047 32.6622 240.599 32.9967 240.091 33.2773C239.583 33.558 239.07 33.7846 238.551 33.9573C238.033 34.13 237.536 34.2541 237.06 34.3296C236.585 34.4052 236.174 34.443 235.829 34.443C234.662 34.443 233.56 34.2487 232.523 33.8602C231.486 33.4716 230.589 32.9212 229.833 32.2089C229.077 31.4965 228.477 30.6385 228.034 29.6348C227.591 28.631 227.37 27.514 227.37 26.2836C227.37 25.0532 227.591 23.9362 228.034 22.9324C228.477 21.9287 229.077 21.0707 229.833 20.3584C230.589 19.646 231.486 19.0956 232.523 18.7071C233.56 18.3185 234.662 18.1243 235.829 18.1243C236.823 18.1243 237.822 18.3131 238.827 18.6909C239.831 19.0686 240.712 19.6676 241.468 20.4879L238.778 23.1753ZM242.505 26.2836C242.505 25.0532 242.727 23.9362 243.17 22.9324C243.613 21.9287 244.212 21.0707 244.969 20.3584C245.725 19.646 246.622 19.0956 247.659 18.7071C248.696 18.3185 249.798 18.1243 250.965 18.1243C252.131 18.1243 253.233 18.3185 254.27 18.7071C255.308 19.0956 256.204 19.646 256.961 20.3584C257.717 21.0707 258.316 21.9287 258.759 22.9324C259.202 23.9362 259.424 25.0532 259.424 26.2836C259.424 27.514 259.202 28.631 258.759 29.6348C258.316 30.6385 257.717 31.4965 256.961 32.2089C256.204 32.9212 255.308 33.4716 254.27 33.8602C253.233 34.2487 252.131 34.443 250.965 34.443C249.798 34.443 248.696 34.2487 247.659 33.8602C246.622 33.4716 245.725 32.9212 244.969 32.2089C244.212 31.4965 243.613 30.6385 243.17 29.6348C242.727 28.631 242.505 27.514 242.505 26.2836ZM246.395 26.2836C246.395 26.888 246.497 27.4708 246.703 28.032C246.908 28.5933 247.21 29.0897 247.61 29.5214C248.01 29.9532 248.491 30.2985 249.052 30.5576C249.614 30.8166 250.252 30.9461 250.965 30.9461C251.678 30.9461 252.315 30.8166 252.877 30.5576C253.439 30.2985 253.919 29.9532 254.319 29.5214C254.719 29.0897 255.021 28.5933 255.227 28.032C255.432 27.4708 255.534 26.888 255.534 26.2836C255.534 25.6792 255.432 25.0964 255.227 24.5352C255.021 23.9739 254.719 23.4775 254.319 23.0458C253.919 22.6141 253.439 22.2687 252.877 22.0097C252.315 21.7506 251.678 21.6211 250.965 21.6211C250.252 21.6211 249.614 21.7506 249.052 22.0097C248.491 22.2687 248.01 22.6141 247.61 23.0458C247.21 23.4775 246.908 23.9739 246.703 24.5352C246.497 25.0964 246.395 25.6792 246.395 26.2836ZM262.632 9.57635H266.522V34.0544H262.632V9.57635Z" fill="#2A304E"/>
</g>
<defs>
<clipPath id="clip0">
<rect x="0.656738" y="0.461853" width="265.869" height="47.0499" fill="white"/>
</clipPath>
</defs>
</svg>
