<svg width="1080px" height="1080px" viewBox="0 0 1080 1080" version="1.1" xmlns="http://www.w3.org/2000/svg" xmlns:xlink="http://www.w3.org/1999/xlink">
    <title>Long line_colour</title>
    <defs>
        <polygon id="path-1" points="0 0.0260515227 131.991976 0.0260515227 131.991976 163.03211 0 163.03211"></polygon>
    </defs>
    <g id="Long-line_colour" stroke="none" stroke-width="1" fill="none" fill-rule="evenodd">
        <path d="M541.234795,537.353086 C543.116556,537.353086 544.86331,536.866165 546.471724,535.889813 C548.078471,534.915971 549.371035,533.621698 550.34275,532.00532 C551.312799,530.390617 551.800323,528.609423 551.800323,526.656719 C551.800323,524.767599 551.312799,523.060865 550.34275,521.537354 C549.371035,520.013007 548.078471,518.793195 546.471724,517.878753 C544.86331,516.965149 543.116556,516.508347 541.234795,516.508347 L521.836325,516.508347 L521.836325,537.353086 L541.234795,537.353086 Z M542.419021,507 C545.94003,507 549.188526,507.868426 552.164508,509.605279 C555.138824,511.342131 557.520609,513.690563 559.313199,516.644718 C561.102455,519.601383 562,522.938717 562,526.656719 C562,530.437468 561.07412,533.849262 559.222361,536.896284 C557.368935,539.944978 554.911312,542.367034 551.844492,544.165797 C548.778506,545.962887 545.392503,546.862269 541.689818,546.862269 L521.836325,546.862269 L521.836325,571 L512,571 L512,507 L542.419021,507 Z" id="Fill-1" fill="#000000"></path>
        <path d="M610.289588,516.494818 L590.915829,516.494818 L590.915829,537.585594 L611.850646,537.585594 C613.99227,537.585594 615.875118,537.096859 617.49751,536.124403 C619.117381,535.151946 620.372613,533.857009 621.262366,532.244602 C622.147918,530.63136 622.594895,528.88027 622.594895,526.993839 C622.594895,524.92528 622.042055,523.099 620.941416,521.51667 C619.839097,519.933504 618.353656,518.70206 616.486771,517.81816 C614.619886,516.936767 612.553879,516.494818 610.289588,516.494818 M632.877043,527.084902 C632.877043,531.224525 631.621811,534.981516 629.111347,538.361721 C626.600883,541.73942 623.388867,544.188941 619.471938,545.711119 L636,571 L623.786273,570.908937 L608.45295,547.078741 L590.915829,547.078741 L590.915829,570.908937 L581,570.908937 L581,507 L612.400965,507 C615.889401,507 619.194678,507.837115 622.316794,509.510508 C625.438911,511.184737 627.977941,513.543195 629.938926,516.585881 C631.896551,519.630238 632.877043,523.129076 632.877043,527.084902" id="Fill-3" fill="#000000"></path>
        <path d="M708.880079,538.998742 C708.880079,534.539747 707.837022,530.552151 705.751751,527.03847 C703.668163,523.524789 700.783973,520.743369 697.104231,518.69505 C693.426173,516.648408 689.222798,515.625087 684.5,515.625087 C679.654291,515.625087 675.40714,516.648408 671.758547,518.69505 C668.109112,520.743369 665.256912,523.524789 663.202789,527.03847 C661.146141,530.552151 660.119921,534.539747 660.119921,538.998742 C660.119921,543.460253 661.146141,547.447849 663.202789,550.96153 C665.256912,554.476889 668.109112,557.256631 671.758547,559.303273 C675.40714,561.351592 679.654291,562.374913 684.5,562.374913 C689.222798,562.374913 693.426173,561.351592 697.104231,559.303273 C700.783973,557.256631 703.668163,554.460952 705.751751,550.917074 C707.837022,547.372358 708.880079,543.39986 708.880079,538.998742 M719,538.998742 C719,543.643947 718.157305,547.968736 716.47023,551.970592 C714.783156,555.974125 712.389766,559.471869 709.294271,562.467179 C706.197091,565.461651 702.546814,567.799352 698.345965,569.479443 C694.143432,571.157857 689.529233,572 684.5,572 C679.470767,572 674.839731,571.157857 670.608575,569.479443 C666.375735,567.799352 662.727142,565.461651 659.660269,562.467179 C656.593397,559.471869 654.216003,555.974125 652.52977,551.970592 C650.843537,547.968736 650,543.643947 650,538.998742 C650,534.356891 650.843537,530.03378 652.52977,526.029408 C654.216003,522.027553 656.593397,518.528131 659.660269,515.532821 C662.727142,512.540865 666.375735,510.203165 670.608575,508.520557 C674.839731,506.840465 679.470767,506 684.5,506 C689.529233,506 694.143432,506.840465 698.345965,508.520557 C702.546814,510.203165 706.197091,512.540865 709.294271,515.532821 C712.389766,518.528131 714.783156,522.027553 716.47023,526.029408 C718.157305,530.03378 719,534.356891 719,538.998742" id="Fill-5" fill="#000000"></path>
        <polygon id="Fill-7" fill="#000000" points="748.327591 571 748.327591 516.508347 728 516.508347 728 507 779 507 779 516.508347 758.127682 516.508347 758.127682 571"></polygon>
        <path d="M846.879955,538.998742 C846.879955,534.539747 845.836044,530.552151 843.751589,527.03847 C841.667134,523.524789 838.783751,520.743369 835.103964,518.69505 C831.425019,516.648408 827.222435,515.625087 822.499579,515.625087 C817.653811,515.625087 813.406608,516.648408 809.757128,518.69505 C806.108491,520.743369 803.256256,523.524789 801.202108,527.03847 C799.145435,530.552151 798.118361,534.539747 798.118361,538.998742 C798.118361,543.460253 799.145435,547.447849 801.202108,550.96153 C803.256256,554.476889 806.108491,557.256631 809.757128,559.303273 C813.406608,561.351592 817.653811,562.374913 822.499579,562.374913 C827.222435,562.374913 831.425019,561.351592 835.103964,559.303273 C838.783751,557.256631 841.667134,554.460952 843.751589,550.917074 C845.836044,547.372358 846.879955,543.39986 846.879955,538.998742 M857,538.998742 C857,543.643947 856.156452,547.968736 854.469357,551.970592 C852.783104,555.974125 850.389685,559.471869 847.294152,562.467179 C844.196093,565.461651 840.545772,567.799352 836.345713,569.479443 C832.143129,571.157857 827.528873,572 822.499579,572 C817.469443,572 812.83835,571.157857 808.607984,569.479443 C804.375093,567.799352 800.726455,565.461651 797.659545,562.467179 C794.593477,559.471869 792.215212,555.974125 790.528959,551.970592 C788.841864,547.968736 788,543.643947 788,538.998742 C788,534.356891 788.841864,530.03378 790.528959,526.029408 C792.215212,522.027553 794.593477,518.528131 797.659545,515.532821 C800.726455,512.540865 804.375093,510.203165 808.607984,508.520557 C812.83835,506.840465 817.469443,506 822.499579,506 C827.528873,506 832.143129,506.840465 836.345713,508.520557 C840.545772,510.203165 844.196093,512.540865 847.294152,515.532821 C850.389685,518.528131 852.783104,522.027553 854.469357,526.029408 C856.156452,530.03378 857,534.356891 857,538.998742" id="Fill-9" fill="#000000"></path>
        <path d="M929.088526,562.505879 C927.633835,563.980268 925.64259,565.441161 923.125623,566.883499 C920.606157,568.327523 917.707604,569.542966 914.429132,570.525611 C911.152326,571.507412 907.661399,572 903.959684,572 C899.346494,572 895.03824,571.216414 891.029923,569.650087 C887.025771,568.082072 883.519847,565.854463 880.513818,562.965571 C877.509454,560.07921 875.173282,556.590609 873.503636,552.503987 C871.832324,548.418209 871,543.855869 871,538.814436 C871,534.085088 871.87898,529.720964 873.638608,525.726281 C875.399901,521.731597 877.841884,518.26071 880.969554,515.310244 C884.095559,512.360623 887.66147,510.073126 891.667288,508.441852 C895.674772,506.816481 899.921373,506 904.414587,506 C908.17629,506 911.713874,506.539822 915.020674,507.613562 C918.329972,508.689832 921.273515,510.056257 923.854635,511.715367 C926.432423,513.375319 928.481155,515.126367 930,516.969354 L923.717164,524.529394 C921.046064,522.008256 918.087524,519.935845 914.839045,518.305414 C911.592233,516.679199 907.995495,515.862719 904.049665,515.862719 C900.163821,515.862719 896.462939,516.785477 892.942018,518.628463 C889.42193,520.47145 886.554205,523.114891 884.338007,526.556257 C882.122644,529.99931 881.015378,534.085088 881.015378,538.814436 C881.015378,543.978172 882.152637,548.279036 884.427988,551.719558 C886.705839,555.163455 889.67771,557.757131 893.351931,559.508179 C897.024486,561.260914 900.985314,562.137281 905.235247,562.137281 C909.542668,562.137281 913.276043,561.292966 916.434541,559.602648 C919.588872,557.913173 922.199153,556.145256 924.262882,554.301426 L929.088526,562.505879 Z" id="Fill-11" fill="#000000"></path>
        <path d="M1002.88008,538.998742 C1002.88008,534.539747 1001.8345,530.552151 999.750909,527.03847 C997.664796,523.524789 994.783973,520.743369 991.102548,518.69505 C987.422806,516.648408 983.219431,515.625087 978.499158,515.625087 C973.653449,515.625087 969.403772,516.648408 965.755179,518.69505 C962.106586,520.743369 959.254386,523.524789 957.199422,527.03847 C955.146141,530.552151 954.118238,534.539747 954.118238,538.998742 C954.118238,543.460253 955.146141,547.447849 957.199422,550.96153 C959.254386,554.476889 962.106586,557.256631 965.755179,559.303273 C969.403772,561.351592 973.653449,562.374913 978.499158,562.374913 C983.219431,562.374913 987.422806,561.351592 991.102548,559.303273 C994.783973,557.256631 997.664796,554.460952 999.750909,550.917074 C1001.8345,547.372358 1002.88008,543.39986 1002.88008,538.998742 M1013,538.998742 C1013,543.643947 1012.15478,547.968736 1010.47023,551.970592 C1008.78063,555.974125 1006.38977,559.471869 1003.29174,562.467179 C1000.19541,565.461651 996.545973,567.799352 992.345123,569.479443 C988.14259,571.157857 983.526707,572 978.499158,572 C973.4674,572 968.838047,571.157857 964.606891,569.479443 C960.375735,567.799352 956.724616,565.461651 953.659428,562.467179 C950.590871,559.471869 948.215161,555.974125 946.528928,551.970592 C944.841012,547.968736 944,543.643947 944,538.998742 C944,534.356891 944.841012,530.03378 946.528928,526.029408 C948.215161,522.027553 950.590871,518.528131 953.659428,515.532821 C956.724616,512.540865 960.375735,510.203165 964.606891,508.520557 C968.838047,506.840465 973.4674,506 978.499158,506 C983.526707,506 988.14259,506.840465 992.345123,508.520557 C996.545973,510.203165 1000.19541,512.540865 1003.29174,515.532821 C1006.38977,518.528131 1008.78063,522.027553 1010.47023,526.029408 C1012.15478,530.03378 1013,534.356891 1013,538.998742" id="Fill-13" fill="#000000"></path>
        <polygon id="Fill-15" fill="#000000" points="1077 561.491653 1077 571 1032 571 1032 507 1041.87864 507 1041.87864 561.491653"></polygon>
        <path d="M218.387469,559.159954 C215.965765,560.713584 212.851435,561.491653 209.038664,561.491653 L187.801421,561.491653 L187.801421,542.840569 L208.586048,542.840569 C210.642336,542.840569 212.698625,543.114148 214.757405,543.66298 C216.813694,544.212649 218.538618,545.158045 219.930516,546.497497 C221.322414,547.838621 222.017533,549.666667 222.017533,551.98247 C222.017533,555.215224 220.806681,557.605488 218.387469,559.159954 L218.387469,559.159954 Z M187.801421,516.509183 L207.043001,516.509183 C210.310141,516.509183 213.063209,517.148372 215.301375,518.428422 C217.53954,519.709309 218.659038,521.842726 218.659038,524.82951 C218.659038,527.511759 217.600166,529.583265 215.482421,531.046538 C213.363846,532.508138 210.913906,533.271148 208.132601,533.331386 L187.801421,533.331386 L187.801421,516.509183 Z M225.783796,539.183641 C223.939282,537.843353 221.927009,536.80509 219.749469,536.074709 C222.653686,534.855733 224.861124,533.102148 226.374273,530.8173 C227.884931,528.530779 228.642336,525.957292 228.642336,523.092657 C228.642336,517.850308 226.887515,513.857053 223.378703,511.112893 C219.86989,508.37208 214.666882,507 207.769678,507 L178,507 L178,571 L209.21971,571 C211.883086,571 214.54397,570.713034 217.207345,570.131574 C219.86989,569.55346 222.319,568.562885 224.559657,567.160686 C226.796992,565.759324 228.598321,563.839249 229.960321,561.40046 C231.321491,558.963345 232,555.884531 232,552.165693 C232,549.118671 231.426133,546.527615 230.275907,544.395035 C229.125681,542.262455 227.629141,540.525602 225.783796,539.183641 L225.783796,539.183641 Z" id="Fill-17" fill="#000000"></path>
        <path d="M264.785752,545.949501 L271.349234,530.588062 C272.199284,528.576794 273.02097,526.475169 273.810123,524.279841 C274.599276,522.086186 275.420963,519.830621 276.272681,517.513981 C277.060999,519.770383 277.852655,521.948142 278.641808,524.05144 C279.43096,526.154738 280.221782,528.212021 281.013437,530.222453 L287.758775,545.949501 L264.785752,545.949501 Z M271.258307,507 L244,571 L254.118841,571 L260.773252,555.456175 L291.771275,555.456175 L298.334758,571 L309,571 L281.923549,507 L271.258307,507 Z" id="Fill-19" fill="#000000"></path>
        <polygon id="Fill-21" fill="#000000" points="376.197132 516.508347 376.197132 528.028799 376.197132 555.91967 335.169112 507 326 507 326 516.508347 326 571 335.803699 571 335.803699 544.394198 335.803699 523.43986 376.649814 571 386 571 386 564.563774 386 516.508347 386 507 376.197132 507"></polygon>
        <path d="M456.500381,550.291632 C454.954774,553.674144 452.529885,556.387349 449.226545,558.429572 C445.924037,560.472633 441.635767,561.491653 436.363401,561.491653 L418.818515,561.491653 L418.818515,516.508347 L436.363401,516.508347 C441.575873,516.508347 445.849169,517.545773 449.182456,519.618116 C452.513247,521.688785 454.954774,524.432945 456.500381,527.846412 C458.045988,531.259043 458.818792,534.977045 458.818792,538.998745 C458.818792,543.144267 458.045988,546.909121 456.500381,550.291632 M466.95361,526.701897 C465.591845,522.832464 463.546286,519.418997 460.817766,516.461495 C458.090077,513.50734 454.726843,511.1907 450.728063,509.514086 C446.726787,507.838307 442.09163,507 436.8176,507 L409,507 L409,571 L436.8176,571 C443.847699,571 449.757275,569.552623 454.544664,566.657869 C459.332885,563.763952 462.939024,559.892009 465.363914,555.046224 C467.787139,550.200439 469,544.851001 469,538.998745 C469,534.67251 468.31787,530.573839 466.95361,526.701897" id="Fill-23" fill="#000000"></path>
        <g id="Group-27" transform="translate(0.000000, 457.000000)">
            <mask id="mask-2" fill="white">
                <use xlink:href="#path-1"></use>
            </mask>
            <g id="Clip-26"></g>
            <path d="M112.973039,111.34925 C112.973039,125.034704 101.873072,136.165427 88.2273034,136.165427 L40.7821953,136.165427 L90.089309,86.7196366 C102.852678,87.6944678 112.973039,98.3050009 112.973039,111.34925 L112.973039,111.34925 Z M33.7850097,84.4808864 L33.7850097,26.9734105 L88.2273034,26.9734105 C89.1574682,26.9734105 90.0750632,27.0238328 90.9784125,27.1255178 L33.7850097,84.4808864 Z M122.867143,51.792108 C122.867143,40.2075841 117.185596,29.9306785 108.4697,23.6152852 L131.991976,0.0260515227 L117.919672,0.106727206 L99.2325775,18.8478565 C95.77337,17.682261 92.0728226,17.0503015 88.2273034,17.0503015 L23.8909055,17.0503015 L23.8909055,108.434841 L101.348493,30.7567639 C108.325567,35.1510675 112.973039,42.9371113 112.973039,51.792108 C112.973039,65.4767208 101.873072,76.6082843 88.2273034,76.6082843 L86.1784269,76.6082843 L-8.37986297e-05,163.03211 L13.9917734,163.03211 L30.8872531,146.088536 L88.2273034,146.088536 C107.327525,146.088536 122.867143,130.504683 122.867143,111.34925 C122.867143,98.716783 116.087834,87.6709374 106.007697,81.5900078 C116.09789,75.5107589 122.867143,64.430458 122.867143,51.792108 L122.867143,51.792108 Z" id="Fill-25" fill="#4520E6" mask="url(#mask-2)"></path>
        </g>
    </g>
</svg>
