<svg width="1080" height="300" viewBox="0 0 1080 300" fill="none" xmlns="http://www.w3.org/2000/svg">
<rect width="1080" height="300" fill="white"/>
<path fill-rule="evenodd" clip-rule="evenodd" d="M540.732 148.569C542.268 148.569 543.693 148.172 545.006 147.375C546.318 146.58 547.372 145.524 548.166 144.205C548.957 142.887 549.355 141.433 549.355 139.839C549.355 138.298 548.957 136.905 548.166 135.661C547.372 134.417 546.318 133.422 545.006 132.675C543.693 131.93 542.268 131.557 540.732 131.557H524.9V148.569H540.732ZM541.699 123.796C544.572 123.796 547.223 124.505 549.652 125.923C552.08 127.34 554.024 129.257 555.487 131.668C556.947 134.081 557.68 136.805 557.68 139.839C557.68 142.925 556.924 145.71 555.413 148.196C553.9 150.685 551.894 152.661 549.391 154.13C546.889 155.596 544.125 156.33 541.103 156.33H524.9V176.03H516.872V123.796H541.699Z" fill="black"/>
<path fill-rule="evenodd" clip-rule="evenodd" d="M597.092 131.546H581.279V148.759H598.366C600.113 148.759 601.65 148.36 602.974 147.566C604.296 146.773 605.321 145.716 606.047 144.4C606.77 143.083 607.135 141.654 607.135 140.115C607.135 138.426 606.683 136.936 605.785 135.644C604.885 134.352 603.673 133.347 602.149 132.626C600.626 131.906 598.94 131.546 597.092 131.546ZM615.526 140.189C615.526 143.567 614.502 146.634 612.453 149.392C610.404 152.149 607.783 154.148 604.586 155.391L618.075 176.03L608.107 175.956L595.592 156.507H581.279V175.956H573.187V123.796H598.815C601.662 123.796 604.359 124.48 606.908 125.845C609.456 127.212 611.528 129.137 613.128 131.62C614.726 134.105 615.526 136.96 615.526 140.189Z" fill="black"/>
<path fill-rule="evenodd" clip-rule="evenodd" d="M677.557 149.912C677.557 146.273 676.705 143.019 675.004 140.151C673.303 137.283 670.949 135.013 667.946 133.341C664.944 131.671 661.513 130.836 657.659 130.836C653.704 130.836 650.238 131.671 647.26 133.341C644.281 135.013 641.953 137.283 640.277 140.151C638.598 143.019 637.761 146.273 637.761 149.912C637.761 153.554 638.598 156.808 640.277 159.676C641.953 162.545 644.281 164.814 647.26 166.484C650.238 168.156 653.704 168.991 657.659 168.991C661.513 168.991 664.944 168.156 667.946 166.484C670.949 164.814 673.303 162.532 675.004 159.64C676.705 156.747 677.557 153.504 677.557 149.912ZM685.816 149.912C685.816 153.704 685.128 157.233 683.751 160.499C682.375 163.767 680.421 166.622 677.895 169.066C675.367 171.51 672.388 173.418 668.959 174.789C665.529 176.159 661.763 176.847 657.659 176.847C653.554 176.847 649.775 176.159 646.321 174.789C642.867 173.418 639.889 171.51 637.386 169.066C634.883 166.622 632.942 163.767 631.566 160.499C630.19 157.233 629.501 153.704 629.501 149.912C629.501 146.124 630.19 142.596 631.566 139.327C632.942 136.061 634.883 133.205 637.386 130.761C639.889 128.319 642.867 126.411 646.321 125.037C649.775 123.666 653.554 122.98 657.659 122.98C661.763 122.98 665.529 123.666 668.959 125.037C672.388 126.411 675.367 128.319 677.895 130.761C680.421 133.205 682.375 136.061 683.751 139.327C685.128 142.596 685.816 146.124 685.816 149.912Z" fill="black"/>
<path fill-rule="evenodd" clip-rule="evenodd" d="M709.752 176.03V131.557H693.162V123.796H734.786V131.557H717.75V176.03H709.752Z" fill="black"/>
<path fill-rule="evenodd" clip-rule="evenodd" d="M790.186 149.912C790.186 146.273 789.334 143.019 787.633 140.151C785.932 137.283 783.578 135.013 780.575 133.341C777.572 131.671 774.143 130.836 770.288 130.836C766.333 130.836 762.867 131.671 759.888 133.341C756.91 135.013 754.582 137.283 752.906 140.151C751.227 143.019 750.389 146.273 750.389 149.912C750.389 153.554 751.227 156.808 752.906 159.676C754.582 162.545 756.91 164.814 759.888 166.484C762.867 168.156 766.333 168.991 770.288 168.991C774.143 168.991 777.572 168.156 780.575 166.484C783.578 164.814 785.932 162.532 787.633 159.64C789.334 156.747 790.186 153.504 790.186 149.912ZM798.446 149.912C798.446 153.704 797.757 157.233 796.38 160.499C795.004 163.767 793.051 166.622 790.524 169.066C787.996 171.51 785.016 173.418 781.589 174.789C778.159 176.159 774.393 176.847 770.288 176.847C766.183 176.847 762.403 176.159 758.95 174.789C755.496 173.418 752.518 171.51 750.015 169.066C747.512 166.622 745.571 163.767 744.195 160.499C742.818 157.233 742.131 153.704 742.131 149.912C742.131 146.124 742.818 142.596 744.195 139.327C745.571 136.061 747.512 133.205 750.015 130.761C752.518 128.319 755.496 126.411 758.95 125.037C762.403 123.666 766.183 122.98 770.288 122.98C774.393 122.98 778.159 123.666 781.589 125.037C785.016 126.411 787.996 128.319 790.524 130.761C793.051 133.205 795.004 136.061 796.38 139.327C797.757 142.596 798.446 146.124 798.446 149.912Z" fill="black"/>
<path fill-rule="evenodd" clip-rule="evenodd" d="M857.281 169.098C856.094 170.301 854.469 171.494 852.415 172.671C850.358 173.849 847.993 174.841 845.317 175.643C842.642 176.445 839.793 176.847 836.772 176.847C833.007 176.847 829.491 176.207 826.219 174.929C822.951 173.649 820.09 171.831 817.637 169.473C815.185 167.117 813.278 164.27 811.915 160.935C810.551 157.6 809.872 153.877 809.872 149.762C809.872 145.902 810.589 142.34 812.025 139.08C813.463 135.82 815.456 132.987 818.009 130.579C820.56 128.172 823.47 126.305 826.74 124.973C830.01 123.647 833.476 122.98 837.143 122.98C840.214 122.98 843.101 123.421 845.8 124.297C848.501 125.176 850.903 126.291 853.009 127.645C855.113 129 856.785 130.429 858.025 131.933L852.897 138.103C850.717 136.046 848.303 134.354 845.651 133.023C843.001 131.696 840.066 131.03 836.846 131.03C833.674 131.03 830.654 131.783 827.78 133.287C824.907 134.791 822.567 136.949 820.758 139.757C818.95 142.567 818.046 145.902 818.046 149.762C818.046 153.976 818.974 157.487 820.831 160.295C822.69 163.105 825.116 165.222 828.115 166.651C831.112 168.082 834.345 168.797 837.813 168.797C841.329 168.797 844.376 168.108 846.954 166.728C849.528 165.35 851.658 163.907 853.343 162.402L857.281 169.098Z" fill="black"/>
<path fill-rule="evenodd" clip-rule="evenodd" d="M917.507 149.912C917.507 146.273 916.653 143.019 914.953 140.151C913.25 137.283 910.899 135.013 907.894 133.341C904.891 131.671 901.46 130.836 897.608 130.836C893.653 130.836 890.185 131.671 887.207 133.341C884.229 135.013 881.901 137.283 880.224 140.151C878.548 143.019 877.709 146.273 877.709 149.912C877.709 153.554 878.548 156.808 880.224 159.676C881.901 162.545 884.229 164.814 887.207 166.484C890.185 168.156 893.653 168.991 897.608 168.991C901.46 168.991 904.891 168.156 907.894 166.484C910.899 164.814 913.25 162.532 914.953 159.64C916.653 156.747 917.507 153.504 917.507 149.912ZM925.766 149.912C925.766 153.704 925.076 157.233 923.701 160.499C922.322 163.767 920.371 166.622 917.843 169.066C915.315 171.51 912.337 173.418 908.908 174.789C905.478 176.159 901.711 176.847 897.608 176.847C893.501 176.847 889.723 176.159 886.27 174.789C882.816 173.418 879.837 171.51 877.335 169.066C874.83 166.622 872.891 163.767 871.515 160.499C870.138 157.233 869.451 153.704 869.451 149.912C869.451 146.124 870.138 142.596 871.515 139.327C872.891 136.061 874.83 133.205 877.335 130.761C879.837 128.319 882.816 126.411 886.27 125.037C889.723 123.666 893.501 122.98 897.608 122.98C901.711 122.98 905.478 123.666 908.908 125.037C912.337 126.411 915.315 128.319 917.843 130.761C920.371 133.205 922.322 136.061 923.701 139.327C925.076 142.596 925.766 146.124 925.766 149.912Z" fill="black"/>
<path fill-rule="evenodd" clip-rule="evenodd" d="M978 168.27V176.03H941.273V123.796H949.336V168.27H978Z" fill="black"/>
<path fill-rule="evenodd" clip-rule="evenodd" d="M277.238 166.367C275.262 167.635 272.72 168.27 269.608 168.27H252.275V153.048H269.239C270.917 153.048 272.595 153.271 274.276 153.719C275.954 154.168 277.362 154.939 278.498 156.033C279.634 157.127 280.201 158.619 280.201 160.509C280.201 163.148 279.213 165.098 277.238 166.367ZM252.275 131.557H267.979C270.646 131.557 272.893 132.079 274.72 133.124C276.546 134.169 277.46 135.91 277.46 138.348C277.46 140.537 276.596 142.228 274.867 143.422C273.138 144.615 271.139 145.238 268.869 145.287H252.275V131.557ZM283.275 150.063C281.769 148.969 280.127 148.122 278.35 147.526C280.72 146.531 282.522 145.1 283.757 143.235C284.99 141.369 285.608 139.269 285.608 136.931C285.608 132.652 284.176 129.393 281.312 127.153C278.448 124.916 274.202 123.796 268.572 123.796H244.276V176.03H269.756C271.93 176.03 274.101 175.796 276.275 175.322C278.448 174.85 280.447 174.041 282.276 172.897C284.102 171.753 285.572 170.186 286.684 168.196C287.794 166.207 288.348 163.694 288.348 160.659C288.348 158.172 287.88 156.057 286.941 154.317C286.002 152.576 284.781 151.159 283.275 150.063Z" fill="black"/>
<path fill-rule="evenodd" clip-rule="evenodd" d="M315.106 155.585L320.463 143.048C321.157 141.406 321.828 139.691 322.472 137.899C323.116 136.109 323.786 134.268 324.482 132.377C325.125 134.219 325.771 135.996 326.415 137.713C327.059 139.43 327.705 141.109 328.351 142.75L333.856 155.585H315.106ZM320.389 123.796L298.142 176.03H306.401L311.832 163.344H337.131L342.488 176.03H351.192L329.094 123.796H320.389Z" fill="black"/>
<path fill-rule="evenodd" clip-rule="evenodd" d="M406.036 131.557V140.959V163.723L372.55 123.796H365.067V131.557V176.03H373.068V154.316V137.214L406.405 176.03H414.036V170.777V131.557V123.796H406.036V131.557Z" fill="black"/>
<path fill-rule="evenodd" clip-rule="evenodd" d="M471.576 159.129C470.314 161.89 468.335 164.104 465.639 165.771C462.944 167.438 459.444 168.27 455.141 168.27H440.821V131.557H455.141C459.395 131.557 462.882 132.403 465.603 134.095C468.321 135.785 470.314 138.024 471.576 140.81C472.837 143.596 473.468 146.63 473.468 149.912C473.468 153.296 472.837 156.369 471.576 159.129ZM480.107 139.876C478.996 136.718 477.326 133.932 475.099 131.518C472.873 129.107 470.128 127.217 466.864 125.848C463.599 124.481 459.816 123.796 455.511 123.796H432.808V176.03H455.511C461.249 176.03 466.072 174.849 469.979 172.487C473.887 170.125 476.83 166.965 478.81 163.01C480.787 159.055 481.777 154.689 481.777 149.912C481.777 146.382 481.22 143.036 480.107 139.876Z" fill="black"/>
<mask id="mask0_2_2" style="mask-type:alpha" maskUnits="userSpaceOnUse" x="99" y="83" width="108" height="134">
<path d="M99 83.0099H206.726V216.048H99V83.0099Z" fill="white"/>
</mask>
<g mask="url(#mask0_2_2)">
<path fill-rule="evenodd" clip-rule="evenodd" d="M191.204 173.867C191.204 185.036 182.144 194.121 171.007 194.121H132.285L172.527 153.765C182.944 154.561 191.204 163.221 191.204 173.867ZM126.574 151.938V105.003H171.007C171.766 105.003 172.515 105.044 173.253 105.127L126.574 151.938ZM199.279 125.259C199.279 115.804 194.642 107.417 187.528 102.262L206.726 83.0099L195.241 83.0757L179.989 98.3714C177.166 97.4201 174.146 96.9043 171.007 96.9043H118.499V171.488L181.716 108.091C187.411 111.677 191.204 118.032 191.204 125.259C191.204 136.428 182.144 145.513 171.007 145.513H169.335L98.9999 216.048H110.419L124.209 202.22H171.007C186.596 202.22 199.279 189.501 199.279 173.867C199.279 163.557 193.746 154.542 185.519 149.579C193.754 144.617 199.279 135.574 199.279 125.259Z" fill="#4520E6"/>
</g>
</svg>
