<svg width="1080" height="300" viewBox="0 0 1080 300" fill="none" xmlns="http://www.w3.org/2000/svg">
<path fill-rule="evenodd" clip-rule="evenodd" d="M541.235 148.353C543.117 148.353 544.863 147.866 546.472 146.89C548.078 145.916 549.371 144.622 550.343 143.005C551.313 141.391 551.8 139.609 551.8 137.657C551.8 135.768 551.313 134.061 550.343 132.537C549.371 131.013 548.078 129.793 546.472 128.879C544.863 127.965 543.117 127.508 541.235 127.508H521.836V148.353H541.235ZM542.419 118C545.94 118 549.189 118.868 552.164 120.605C555.139 122.342 557.521 124.691 559.313 127.645C561.102 130.601 562 133.939 562 137.657C562 141.437 561.074 144.849 559.222 147.896C557.369 150.945 554.911 153.367 551.844 155.166C548.778 156.963 545.393 157.862 541.69 157.862H521.836V182H512V118H542.419Z" fill="black"/>
<path fill-rule="evenodd" clip-rule="evenodd" d="M610.29 127.495H590.916V148.586H611.851C613.992 148.586 615.875 148.097 617.497 147.124C619.117 146.152 620.373 144.857 621.262 143.245C622.148 141.631 622.595 139.88 622.595 137.994C622.595 135.925 622.042 134.099 620.941 132.517C619.839 130.933 618.354 129.702 616.487 128.818C614.62 127.937 612.554 127.495 610.29 127.495ZM632.877 138.085C632.877 142.225 631.622 145.981 629.111 149.362C626.601 152.739 623.389 155.189 619.472 156.711L636 182L623.786 181.909L608.453 158.079H590.916V181.909H581V118H612.401C615.889 118 619.195 118.837 622.317 120.51C625.439 122.185 627.978 124.543 629.939 127.586C631.897 130.63 632.877 134.129 632.877 138.085Z" fill="black"/>
<path fill-rule="evenodd" clip-rule="evenodd" d="M708.88 149.999C708.88 145.54 707.837 141.552 705.752 138.038C703.668 134.525 700.784 131.743 697.104 129.695C693.426 127.648 689.223 126.625 684.5 126.625C679.654 126.625 675.407 127.648 671.759 129.695C668.109 131.743 665.257 134.525 663.203 138.038C661.146 141.552 660.12 145.54 660.12 149.999C660.12 154.46 661.146 158.448 663.203 161.962C665.257 165.477 668.109 168.257 671.759 170.303C675.407 172.352 679.654 173.375 684.5 173.375C689.223 173.375 693.426 172.352 697.104 170.303C700.784 168.257 703.668 165.461 705.752 161.917C707.837 158.372 708.88 154.4 708.88 149.999ZM719 149.999C719 154.644 718.157 158.969 716.47 162.971C714.783 166.974 712.39 170.472 709.294 173.467C706.197 176.462 702.547 178.799 698.346 180.479C694.143 182.158 689.529 183 684.5 183C679.471 183 674.84 182.158 670.609 180.479C666.376 178.799 662.727 176.462 659.66 173.467C656.593 170.472 654.216 166.974 652.53 162.971C650.844 158.969 650 154.644 650 149.999C650 145.357 650.844 141.034 652.53 137.029C654.216 133.028 656.593 129.528 659.66 126.533C662.727 123.541 666.376 121.203 670.609 119.521C674.84 117.84 679.471 117 684.5 117C689.529 117 694.143 117.84 698.346 119.521C702.547 121.203 706.197 123.541 709.294 126.533C712.39 129.528 714.783 133.028 716.47 137.029C718.157 141.034 719 145.357 719 149.999Z" fill="black"/>
<path fill-rule="evenodd" clip-rule="evenodd" d="M748.328 182V127.508H728V118H779V127.508H758.128V182H748.328Z" fill="black"/>
<path fill-rule="evenodd" clip-rule="evenodd" d="M846.88 149.999C846.88 145.54 845.836 141.552 843.752 138.038C841.667 134.525 838.784 131.743 835.104 129.695C831.425 127.648 827.222 126.625 822.5 126.625C817.654 126.625 813.407 127.648 809.757 129.695C806.109 131.743 803.256 134.525 801.202 138.038C799.145 141.552 798.118 145.54 798.118 149.999C798.118 154.46 799.145 158.448 801.202 161.962C803.256 165.477 806.109 168.257 809.757 170.303C813.407 172.352 817.654 173.375 822.5 173.375C827.222 173.375 831.425 172.352 835.104 170.303C838.784 168.257 841.667 165.461 843.752 161.917C845.836 158.372 846.88 154.4 846.88 149.999ZM857 149.999C857 154.644 856.156 158.969 854.469 162.971C852.783 166.974 850.39 170.472 847.294 173.467C844.196 176.462 840.546 178.799 836.346 180.479C832.143 182.158 827.529 183 822.5 183C817.469 183 812.838 182.158 808.608 180.479C804.375 178.799 800.726 176.462 797.66 173.467C794.593 170.472 792.215 166.974 790.529 162.971C788.842 158.969 788 154.644 788 149.999C788 145.357 788.842 141.034 790.529 137.029C792.215 133.028 794.593 129.528 797.66 126.533C800.726 123.541 804.375 121.203 808.608 119.521C812.838 117.84 817.469 117 822.5 117C827.529 117 832.143 117.84 836.346 119.521C840.546 121.203 844.196 123.541 847.294 126.533C850.39 129.528 852.783 133.028 854.469 137.029C856.156 141.034 857 145.357 857 149.999Z" fill="black"/>
<path fill-rule="evenodd" clip-rule="evenodd" d="M929.089 173.506C927.634 174.98 925.643 176.441 923.126 177.883C920.606 179.328 917.708 180.543 914.429 181.526C911.152 182.507 907.661 183 903.96 183C899.346 183 895.038 182.216 891.03 180.65C887.026 179.082 883.52 176.854 880.514 173.966C877.509 171.079 875.173 167.591 873.504 163.504C871.832 159.418 871 154.856 871 149.814C871 145.085 871.879 140.721 873.639 136.726C875.4 132.732 877.842 129.261 880.97 126.31C884.096 123.361 887.661 121.073 891.667 119.442C895.675 117.816 899.921 117 904.415 117C908.176 117 911.714 117.54 915.021 118.614C918.33 119.69 921.273 121.056 923.855 122.715C926.432 124.375 928.481 126.126 930 127.969L923.717 135.529C921.046 133.008 918.088 130.936 914.839 129.305C911.592 127.679 907.996 126.863 904.05 126.863C900.164 126.863 896.463 127.785 892.942 129.628C889.422 131.471 886.554 134.115 884.338 137.556C882.123 140.999 881.015 145.085 881.015 149.814C881.015 154.978 882.153 159.279 884.428 162.72C886.706 166.163 889.678 168.757 893.352 170.508C897.024 172.261 900.985 173.137 905.235 173.137C909.543 173.137 913.276 172.293 916.435 170.603C919.589 168.913 922.199 167.145 924.263 165.301L929.089 173.506Z" fill="black"/>
<path fill-rule="evenodd" clip-rule="evenodd" d="M1002.88 149.999C1002.88 145.54 1001.83 141.552 999.751 138.038C997.665 134.525 994.784 131.743 991.103 129.695C987.423 127.648 983.219 126.625 978.499 126.625C973.653 126.625 969.404 127.648 965.755 129.695C962.107 131.743 959.254 134.525 957.199 138.038C955.146 141.552 954.118 145.54 954.118 149.999C954.118 154.46 955.146 158.448 957.199 161.962C959.254 165.477 962.107 168.257 965.755 170.303C969.404 172.352 973.653 173.375 978.499 173.375C983.219 173.375 987.423 172.352 991.103 170.303C994.784 168.257 997.665 165.461 999.751 161.917C1001.83 158.372 1002.88 154.4 1002.88 149.999ZM1013 149.999C1013 154.644 1012.15 158.969 1010.47 162.971C1008.78 166.974 1006.39 170.472 1003.29 173.467C1000.2 176.462 996.546 178.799 992.345 180.479C988.143 182.158 983.527 183 978.499 183C973.467 183 968.838 182.158 964.607 180.479C960.376 178.799 956.725 176.462 953.659 173.467C950.591 170.472 948.215 166.974 946.529 162.971C944.841 158.969 944 154.644 944 149.999C944 145.357 944.841 141.034 946.529 137.029C948.215 133.028 950.591 129.528 953.659 126.533C956.725 123.541 960.376 121.203 964.607 119.521C968.838 117.84 973.467 117 978.499 117C983.527 117 988.143 117.84 992.345 119.521C996.546 121.203 1000.2 123.541 1003.29 126.533C1006.39 129.528 1008.78 133.028 1010.47 137.029C1012.15 141.034 1013 145.357 1013 149.999Z" fill="black"/>
<path fill-rule="evenodd" clip-rule="evenodd" d="M1077 172.492V182H1032V118H1041.88V172.492H1077Z" fill="black"/>
<path fill-rule="evenodd" clip-rule="evenodd" d="M218.387 170.16C215.966 171.714 212.851 172.492 209.039 172.492H187.801V153.841H208.586C210.642 153.841 212.699 154.114 214.757 154.663C216.814 155.213 218.539 156.158 219.931 157.497C221.322 158.839 222.018 160.667 222.018 162.982C222.018 166.215 220.807 168.606 218.387 170.16ZM187.801 127.509H207.043C210.31 127.509 213.063 128.148 215.301 129.428C217.54 130.709 218.659 132.843 218.659 135.83C218.659 138.512 217.6 140.583 215.482 142.047C213.364 143.508 210.914 144.271 208.133 144.331H187.801V127.509ZM225.784 150.184C223.939 148.843 221.927 147.805 219.749 147.075C222.654 145.856 224.861 144.102 226.374 141.817C227.885 139.531 228.642 136.957 228.642 134.093C228.642 128.85 226.888 124.857 223.379 122.113C219.87 119.372 214.667 118 207.77 118H178V182H209.22C211.883 182 214.544 181.713 217.207 181.132C219.87 180.553 222.319 179.563 224.56 178.161C226.797 176.759 228.598 174.839 229.96 172.4C231.321 169.963 232 166.885 232 163.166C232 160.119 231.426 157.528 230.276 155.395C229.126 153.262 227.629 151.526 225.784 150.184Z" fill="black"/>
<path fill-rule="evenodd" clip-rule="evenodd" d="M264.786 156.95L271.349 141.588C272.199 139.577 273.021 137.475 273.81 135.28C274.599 133.086 275.421 130.831 276.273 128.514C277.061 130.77 277.853 132.948 278.642 135.051C279.431 137.155 280.222 139.212 281.013 141.222L287.759 156.95H264.786ZM271.258 118L244 182H254.119L260.773 166.456H291.771L298.335 182H309L281.924 118H271.258Z" fill="black"/>
<path fill-rule="evenodd" clip-rule="evenodd" d="M376.197 127.508V139.029V166.92L335.169 118H326V127.508V182H335.804V155.394V134.44L376.65 182H386V175.564V127.508V118H376.197V127.508Z" fill="black"/>
<path fill-rule="evenodd" clip-rule="evenodd" d="M456.5 161.292C454.955 164.674 452.53 167.387 449.227 169.43C445.924 171.473 441.636 172.492 436.363 172.492H418.819V127.508H436.363C441.576 127.508 445.849 128.546 449.182 130.618C452.513 132.689 454.955 135.433 456.5 138.846C458.046 142.259 458.819 145.977 458.819 149.999C458.819 154.144 458.046 157.909 456.5 161.292ZM466.954 137.702C465.592 133.832 463.546 130.419 460.818 127.461C458.09 124.507 454.727 122.191 450.728 120.514C446.727 118.838 442.092 118 436.818 118H409V182H436.818C443.848 182 449.757 180.553 454.545 177.658C459.333 174.764 462.939 170.892 465.364 166.046C467.787 161.2 469 155.851 469 149.999C469 145.672 468.318 141.574 466.954 137.702Z" fill="black"/>
<mask id="mask0_2_2" style="mask-type:alpha" maskUnits="userSpaceOnUse" x="0" y="68" width="132" height="164">
<path d="M0 68.0261H131.992V231.032H0V68.0261Z" fill="white"/>
</mask>
<g mask="url(#mask0_2_2)">
<path fill-rule="evenodd" clip-rule="evenodd" d="M112.973 179.349C112.973 193.035 101.873 204.165 88.2273 204.165H40.7822L90.0893 154.72C102.853 155.694 112.973 166.305 112.973 179.349ZM33.785 152.481V94.9734H88.2273C89.1575 94.9734 90.0751 95.0238 90.9784 95.1255L33.785 152.481ZM122.867 119.792C122.867 108.208 117.186 97.9307 108.47 91.6153L131.992 68.0261L117.92 68.1067L99.2326 86.8479C95.7734 85.6823 92.0728 85.0503 88.2273 85.0503H23.8909V176.435L101.348 98.7568C108.326 103.151 112.973 110.937 112.973 119.792C112.973 133.477 101.873 144.608 88.2273 144.608H86.1784L-9.15527e-05 231.032H13.9918L30.8872 214.089H88.2273C107.328 214.089 122.867 198.505 122.867 179.349C122.867 166.717 116.088 155.671 106.008 149.59C116.098 143.511 122.867 132.43 122.867 119.792Z" fill="#4520E6"/>
</g>
</svg>
